<?xml version="1.0" standalone="no"?>
<!DOCTYPE svg PUBLIC "-//W3C//DTD SVG 20010904//EN"
 "http://www.w3.org/TR/2001/REC-SVG-20010904/DTD/svg10.dtd">
<svg version="1.0" xmlns="http://www.w3.org/2000/svg"
 width="512.000000pt" height="512.000000pt" viewBox="0 0 512.000000 512.000000"
 preserveAspectRatio="xMidYMid meet">

<g transform="translate(0.000000,512.000000) scale(0.100000,-0.100000)"
fill="#000000" stroke="none">
<path d="M2200 5100 c-44 -25 -2047 -1736 -2073 -1771 -10 -15 -21 -46 -24
-70 -12 -118 123 -201 225 -139 l32 20 0 -990 0 -990 -73 0 c-88 0 -132 -20
-165 -76 -40 -68 -19 -145 52 -198 27 -21 34 -21 1152 -24 l1124 -2 0 -249 c0
-221 2 -256 20 -314 36 -115 120 -207 242 -263 l63 -29 920 -3 c661 -2 937 0
980 8 159 31 288 154 330 315 13 52 15 245 15 1570 0 1650 3 1567 -57 1677
-32 58 -113 138 -174 168 -91 47 -121 50 -524 50 l-380 0 -773 659 c-424 362
-782 661 -795 665 -40 10 -81 6 -117 -14z m648 -820 l568 -485 -320 -5 c-287
-5 -326 -7 -366 -24 -134 -57 -221 -150 -261 -275 -16 -55 -19 -93 -19 -292
l0 -229 -421 0 c-411 0 -422 -1 -459 -21 -21 -12 -47 -38 -59 -59 -21 -38 -21
-41 -21 -884 l0 -846 -415 0 -415 0 0 1120 0 1119 162 138 c89 76 450 384 802
685 353 301 644 546 648 545 4 -1 263 -220 576 -487z m204 -922 c4 -123 7
-138 36 -200 56 -123 170 -220 297 -253 73 -19 591 -22 677 -4 87 18 158 58
224 123 98 99 134 196 134 364 l0 102 100 0 c115 0 149 -12 180 -63 20 -31 20
-62 20 -1525 0 -1643 4 -1542 -62 -1582 -32 -20 -48 -20 -924 -20 l-891 0 -34
23 c-18 12 -39 34 -46 47 -19 36 -19 3014 0 3050 7 13 28 35 46 47 30 20 46
23 136 23 l103 0 4 -132z m1068 42 c0 -112 -20 -159 -80 -190 -36 -19 -58 -20
-307 -20 -300 0 -316 3 -360 69 -20 30 -23 47 -23 132 l0 99 385 0 385 0 0
-90z m-1670 -1485 l0 -755 -330 0 -330 0 0 304 0 304 55 4 c88 7 141 71 133
158 -8 78 -56 125 -142 136 l-46 7 0 298 0 299 330 0 330 0 0 -755z"/>
<path d="M3576 2220 c-211 -34 -488 -166 -530 -253 -22 -47 -20 -105 4 -145
52 -85 142 -94 248 -24 272 177 623 173 891 -11 60 -41 122 -46 175 -15 71 42
94 123 57 197 -36 70 -242 182 -419 227 -109 29 -322 40 -426 24z"/>
<path d="M3608 1735 c-123 -28 -252 -99 -288 -157 -44 -72 -15 -172 60 -211
50 -26 105 -17 177 27 115 71 241 71 356 0 75 -46 114 -52 170 -25 86 42 112
148 54 223 -86 113 -349 183 -529 143z"/>
<path d="M3680 1249 c-103 -41 -128 -175 -46 -247 102 -89 246 -24 246 111 0
102 -106 173 -200 136z"/>
</g>
</svg>
